<svg xmlns="http://www.w3.org/2000/svg" xmlns:xlink="http://www.w3.org/1999/xlink" width="400" height="235" viewBox="0 0 400 235">
  <defs>
    <style>
      .cls-1, .cls-2 {
        fill: #f0c000;
        fill-rule: evenodd;
      }

      .cls-1 {
        filter: url(#filter);
      }
    </style>
    <filter id="filter" x="372.938" y="89.813" width="20.812" height="76.406" filterUnits="userSpaceOnUse">
      <feGaussianBlur result="blur" stdDeviation="2.646" in="SourceAlpha"/>
      <feFlood result="flood" flood-opacity="0.2"/>
      <feComposite result="composite" operator="out" in2="blur"/>
      <feOffset result="offset" dy="3"/>
      <feComposite result="composite-2" operator="in" in2="SourceAlpha"/>
      <feBlend result="blend" mode="multiply" in2="SourceGraphic"/>
    </filter>
  </defs>
  <g id="Mesa_de_trabajo_1" data-name="Mesa de trabajo 1">
    <path id="Rectángulo_1_copia" data-name="Rectángulo 1 copia" class="cls-1" d="M372.942,89.821l19.671,7.692,1.13,68.7-20.8-7.345Z" transform="translate(-211 -25)"/>
    <path id="Rectángulo_1_copia_7" data-name="Rectángulo 1 copia 7" class="cls-2" d="M430.417,86.228l19.671,7.691,1.13,68.7-20.8-7.345Z" transform="translate(-211 -25)"/>
    <path id="Rectángulo_1_copia_6" data-name="Rectángulo 1 copia 6" class="cls-2" d="M344.287,121.7l19.542,4.87,1.176,43.625L344.292,163.5Z" transform="translate(-211 -25)"/>
    <path id="Rectángulo_1_copia_2" data-name="Rectángulo 1 copia 2" class="cls-2" d="M400.354,58.972l20.318,6.336,1.139,97.255-22.054-7.95Z" transform="translate(-211 -25)"/>
    <path id="Rectángulo_1_copia_4" data-name="Rectángulo 1 copia 4" class="cls-2" d="M459.132,75.482l19.729,6.208,1.762,76.382-21.437-9.653Z" transform="translate(-211 -25)"/>
    <path id="Caracas_Creativa_" data-name="Caracas Creativa " class="cls-2" d="M244.038,182.308a18.213,18.213,0,0,0-13.073,5.2,16.69,16.69,0,0,0-5.426,12.5,16.913,16.913,0,0,0,5.518,12.7,18.57,18.57,0,0,0,13.3,5.264,20.675,20.675,0,0,0,9.854-2.417v-5.229a19.374,19.374,0,0,1-9.46,2.811,14.577,14.577,0,0,1-10.235-3.741,12.706,12.706,0,0,1-.092-18.586,13.781,13.781,0,0,1,9.827-3.767,22.866,22.866,0,0,1,9.96,2.654v-5.176a26.193,26.193,0,0,0-10.17-2.208h0Zm33.426,17.265a9.907,9.907,0,0,0-3.548-3.626,9.142,9.142,0,0,0-4.835-1.393,9.387,9.387,0,0,0-7.187,3.4,11.51,11.51,0,0,0-3.061,7.949,11.76,11.76,0,0,0,3.035,8.172,9.509,9.509,0,0,0,7.318,3.364q4.941,0,8.278-4.914v4.309h4.572V195.158h-4.572v4.415Zm-1.5,11.575a6.953,6.953,0,0,1-5.107,2.142,6.877,6.877,0,0,1-5.108-2.155,7.2,7.2,0,0,1-2.105-5.229,6.675,6.675,0,0,1,2.158-4.94,7.174,7.174,0,0,1,10.162.013A7.129,7.129,0,0,1,275.962,211.148Zm13.563-15.99v21.679H294.1V204.828a5.571,5.571,0,0,1,1.563-4.033,5.173,5.173,0,0,1,3.876-1.616,11.513,11.513,0,0,1,1.734.262l1.393-4.572a8.326,8.326,0,0,0-1.892-.315,5.8,5.8,0,0,0-3.8,1.195,13.92,13.92,0,0,0-2.982,3.876v-4.467h-4.468Zm35.554,4.415a9.9,9.9,0,0,0-3.547-3.626,9.142,9.142,0,0,0-4.835-1.393,9.384,9.384,0,0,0-7.187,3.4,11.511,11.511,0,0,0-3.062,7.949,11.764,11.764,0,0,0,3.035,8.172,9.511,9.511,0,0,0,7.319,3.364q4.94,0,8.277-4.914v4.309h4.573V195.158h-4.573v4.415Zm-1.5,11.575a6.949,6.949,0,0,1-5.107,2.142,6.875,6.875,0,0,1-5.107-2.155,7.2,7.2,0,0,1-2.106-5.229,6.673,6.673,0,0,1,2.159-4.94,7.173,7.173,0,0,1,10.161.013A7.127,7.127,0,0,1,323.577,211.148Zm22.472,1.695a6.539,6.539,0,0,1-4.888-2.063,7.029,7.029,0,0,1-2-5.084,6.224,6.224,0,0,1,2.129-4.678,7.031,7.031,0,0,1,4.966-2,12.182,12.182,0,0,1,6.517,2.207v-5.1a14.07,14.07,0,0,0-6.228-1.576,11.512,11.512,0,0,0-8.435,3.324,11.275,11.275,0,0,0-3.363,8.369A11.543,11.543,0,0,0,346,217.442a13.653,13.653,0,0,0,6.78-2v-5.23q-3.785,2.628-6.727,2.628h0Zm29.431-13.27a9.9,9.9,0,0,0-3.547-3.626,9.142,9.142,0,0,0-4.835-1.393,9.384,9.384,0,0,0-7.187,3.4,11.511,11.511,0,0,0-3.062,7.949,11.764,11.764,0,0,0,3.035,8.172,9.511,9.511,0,0,0,7.319,3.364q4.94,0,8.277-4.914v4.309h4.573V195.158H375.48v4.415Zm-1.5,11.575a6.951,6.951,0,0,1-5.107,2.142,6.875,6.875,0,0,1-5.107-2.155,7.2,7.2,0,0,1-2.106-5.229,6.673,6.673,0,0,1,2.159-4.94,7.173,7.173,0,0,1,10.161.013A7.127,7.127,0,0,1,373.978,211.148Zm19.135-16.594a7.437,7.437,0,0,0-5.111,1.8,5.758,5.758,0,0,0-2.037,4.5,5.069,5.069,0,0,0,1.432,3.663,14.845,14.845,0,0,0,5.164,2.933q3.731,1.449,3.731,3.262a2.214,2.214,0,0,1-1.064,1.8,4.1,4.1,0,0,1-2.483.775,5.644,5.644,0,0,1-3.942-1.84l-3.6,1.735a8.85,8.85,0,0,0,7.542,4.257A7.548,7.548,0,0,0,398,215.407a6.258,6.258,0,0,0,2.234-4.764,5.627,5.627,0,0,0-1.55-3.99,13.992,13.992,0,0,0-5.085-3.04q-3.535-1.386-3.535-2.858,0-2.049,2.786-2.049a4.539,4.539,0,0,1,2.05.433,16.04,16.04,0,0,1,2.049,1.275L400,197.733q-3.81-3.178-6.884-3.179h0Zm43.91-12.246a18.213,18.213,0,0,0-13.073,5.2,16.691,16.691,0,0,0-5.427,12.5,16.914,16.914,0,0,0,5.519,12.7,18.569,18.569,0,0,0,13.3,5.264,20.676,20.676,0,0,0,9.855-2.417v-5.229a19.374,19.374,0,0,1-9.46,2.811,14.581,14.581,0,0,1-10.236-3.741,12.709,12.709,0,0,1-.092-18.586,13.785,13.785,0,0,1,9.828-3.767,22.87,22.87,0,0,1,9.96,2.654v-5.176a26.193,26.193,0,0,0-10.17-2.208h0Zm15.793,12.85v21.679h4.572V204.828a5.568,5.568,0,0,1,1.564-4.033,5.173,5.173,0,0,1,3.876-1.616,11.513,11.513,0,0,1,1.734.262l1.393-4.572a8.334,8.334,0,0,0-1.892-.315,5.8,5.8,0,0,0-3.8,1.195,13.939,13.939,0,0,0-2.983,3.876v-4.467h-4.467Zm35.659,2.825a11.187,11.187,0,0,0-16.069-.053,11.036,11.036,0,0,0-3.3,7.976,11.26,11.26,0,0,0,3.259,8.225,10.9,10.9,0,0,0,8.093,3.311,12.07,12.07,0,0,0,10.065-4.862l-3.337-2.522a8.085,8.085,0,0,1-6.517,3.232,7.84,7.84,0,0,1-4.665-1.537,7.285,7.285,0,0,1-2.746-4.875h18.5A12.041,12.041,0,0,0,488.475,197.983Zm-8.015.775q4.31,0,6.517,4.467H473.733a6.914,6.914,0,0,1,6.727-4.467h0Zm34.819,0.815a9.907,9.907,0,0,0-3.548-3.626,9.142,9.142,0,0,0-4.835-1.393,9.386,9.386,0,0,0-7.187,3.4,11.51,11.51,0,0,0-3.061,7.949,11.76,11.76,0,0,0,3.035,8.172A9.508,9.508,0,0,0,507,217.442q4.94,0,8.278-4.914v4.309h4.572V195.158h-4.572v4.415Zm-1.5,11.575a6.953,6.953,0,0,1-5.107,2.142,6.877,6.877,0,0,1-5.108-2.155,7.2,7.2,0,0,1-2.106-5.229,6.676,6.676,0,0,1,2.159-4.94,7.174,7.174,0,0,1,10.162.013A7.129,7.129,0,0,1,513.777,211.148Zm14.4-16.042h-3.6v4.23h3.6v17.5h4.572v-17.5h4.52v-4.178h-4.52v-6.307h-4.572v6.255Zm13.323-4.6a3.454,3.454,0,0,0,2.5,1.025,3.381,3.381,0,0,0,2.457-1.025A3.5,3.5,0,0,0,544,184.542a3.431,3.431,0,0,0-2.5,1.038A3.413,3.413,0,0,0,541.5,190.507Zm0.236,26.33h4.52V195.158h-4.52v21.679Zm20.037,0.815L572.7,195.158h-4.82l-6.026,12.535-6.2-12.535h-4.79Zm33.15-18.079a9.907,9.907,0,0,0-3.548-3.626,9.142,9.142,0,0,0-4.835-1.393,9.387,9.387,0,0,0-7.187,3.4,11.51,11.51,0,0,0-3.061,7.949,11.764,11.764,0,0,0,3.035,8.172,9.509,9.509,0,0,0,7.318,3.364q4.941,0,8.278-4.914v4.309H599.5V195.158h-4.572v4.415Zm-1.5,11.575a6.953,6.953,0,0,1-5.107,2.142,6.874,6.874,0,0,1-5.107-2.155,7.2,7.2,0,0,1-2.106-5.229,6.675,6.675,0,0,1,2.158-4.94,7.174,7.174,0,0,1,10.162.013A7.129,7.129,0,0,1,593.425,211.148Z" transform="translate(-211 -25)"/>
  </g>
</svg>
